<svg height="3342" width="720" xmlns="http://www.w3.org/2000/svg">
<rect height="3342" fill="#555" width="720"></rect>
<text fill="#7f7" font-family="Courier New" font-size="12" xml:space="preserve">
<tspan x="10" y="26">└─┬ gulp-favicons@2.2.7 </tspan>
<tspan x="10" y="42">  └─┬ favicons@4.8.3 </tspan>
<tspan x="10" y="58">    ├── async@1.5.2 </tspan>
<tspan x="10" y="74">    ├─┬ cheerio@0.19.0 </tspan>
<tspan x="10" y="90">    │ ├─┬ css-select@1.0.0 </tspan>
<tspan x="10" y="106">    │ │ ├── boolbase@1.0.0 </tspan>
<tspan x="10" y="122">    │ │ ├── css-what@1.0.0 </tspan>
<tspan x="10" y="138">    │ │ ├── domutils@1.4.3 </tspan>
<tspan x="10" y="154">    │ │ └── nth-check@1.0.1 </tspan>
<tspan x="10" y="170">    │ ├─┬ dom-serializer@0.1.0 </tspan>
<tspan x="10" y="186">    │ │ └── domelementtype@1.1.3 </tspan>
<tspan x="10" y="202">    │ ├── entities@1.1.1 </tspan>
<tspan x="10" y="218">    │ ├─┬ htmlparser2@3.8.3 </tspan>
<tspan x="10" y="234">    │ │ ├── domelementtype@1.3.0 </tspan>
<tspan x="10" y="250">    │ │ ├── domhandler@2.3.0 </tspan>
<tspan x="10" y="266">    │ │ ├── domutils@1.5.1 </tspan>
<tspan x="10" y="282">    │ │ ├── entities@1.0.0 </tspan>
<tspan x="10" y="298">    │ │ └─┬ readable-stream@1.1.14 </tspan>
<tspan x="10" y="314">    │ │   └── isarray@0.0.1 </tspan>
<tspan x="10" y="330">    │ └── lodash@3.10.1 </tspan>
<tspan x="10" y="346">    ├── clone@1.0.2 </tspan>
<tspan x="10" y="362">    ├── colors@1.1.2 </tspan>
<tspan x="10" y="378">    ├── harmony-reflect@1.5.1 </tspan>
<tspan x="10" y="394">    ├── image-size@0.4.0 </tspan>
<tspan x="10" y="410">    ├─┬ jimp@0.2.27 </tspan>
<tspan x="10" y="426">    │ ├── bignumber.js@2.4.0 </tspan>
<tspan x="10" y="442">    │ ├── bmp-js@0.0.1 </tspan>
<tspan x="10" y="458">    │ ├── es6-promise@3.3.1 </tspan>
<tspan x="10" y="474">    │ ├── exif-parser@0.1.9 </tspan>
<tspan x="10" y="490">    │ ├── file-type@3.9.0 </tspan>
<tspan x="10" y="506">    │ ├── jpeg-js@0.2.0 </tspan>
<tspan x="10" y="522">    │ ├─┬ load-bmfont@1.3.0 </tspan>
<tspan x="10" y="538">    │ │ ├── buffer-equal@0.0.1 </tspan>
<tspan x="10" y="554">    │ │ ├── parse-bmfont-ascii@1.0.6 </tspan>
<tspan x="10" y="570">    │ │ ├── parse-bmfont-binary@1.0.6 </tspan>
<tspan x="10" y="586">    │ │ ├─┬ parse-bmfont-xml@1.1.3 </tspan>
<tspan x="10" y="602">    │ │ │ └── xml-parse-from-string@1.0.0 </tspan>
<tspan x="10" y="618">    │ │ └─┬ xhr@2.4.0 </tspan>
<tspan x="10" y="634">    │ │   ├─┬ global@4.3.1 </tspan>
<tspan x="10" y="650">    │ │   │ ├─┬ min-document@2.19.0 </tspan>
<tspan x="10" y="666">    │ │   │ │ └── dom-walk@0.1.1 </tspan>
<tspan x="10" y="682">    │ │   │ └── process@0.5.2 </tspan>
<tspan x="10" y="698">    │ │   ├── is-function@1.0.1 </tspan>
<tspan x="10" y="714">    │ │   └─┬ parse-headers@2.0.1 </tspan>
<tspan x="10" y="730">    │ │     ├── for-each@0.3.2 </tspan>
<tspan x="10" y="746">    │ │     └── trim@0.0.1 </tspan>
<tspan x="10" y="762">    │ ├── mime@1.3.4 </tspan>
<tspan x="10" y="778">    │ ├── pixelmatch@4.0.2 </tspan>
<tspan x="10" y="794">    │ ├── pngjs@3.0.1 </tspan>
<tspan x="10" y="810">    │ ├── read-chunk@1.0.1 </tspan>
<tspan x="10" y="826">    │ ├─┬ request@2.81.0 </tspan>
<tspan x="10" y="842">    │ │ ├── aws-sign2@0.6.0 </tspan>
<tspan x="10" y="858">    │ │ ├── aws4@1.6.0 </tspan>
<tspan x="10" y="874">    │ │ ├── caseless@0.12.0 </tspan>
<tspan x="10" y="890">    │ │ ├─┬ combined-stream@1.0.5 </tspan>
<tspan x="10" y="906">    │ │ │ └── delayed-stream@1.0.0 </tspan>
<tspan x="10" y="922">    │ │ ├── extend@3.0.0 </tspan>
<tspan x="10" y="938">    │ │ ├── forever-agent@0.6.1 </tspan>
<tspan x="10" y="954">    │ │ ├─┬ form-data@2.1.2 </tspan>
<tspan x="10" y="970">    │ │ │ └── asynckit@0.4.0 </tspan>
<tspan x="10" y="986">    │ │ ├─┬ har-validator@4.2.1 </tspan>
<tspan x="10" y="1002">    │ │ │ ├─┬ ajv@4.11.5 </tspan>
<tspan x="10" y="1018">    │ │ │ │ ├── co@4.6.0 </tspan>
<tspan x="10" y="1034">    │ │ │ │ └─┬ json-stable-stringify@1.0.1 </tspan>
<tspan x="10" y="1050">    │ │ │ │   └── jsonify@0.0.0 </tspan>
<tspan x="10" y="1066">    │ │ │ └── har-schema@1.0.5 </tspan>
<tspan x="10" y="1082">    │ │ ├─┬ hawk@3.1.3 </tspan>
<tspan x="10" y="1098">    │ │ │ ├── boom@2.10.1 </tspan>
<tspan x="10" y="1114">    │ │ │ ├── cryptiles@2.0.5 </tspan>
<tspan x="10" y="1130">    │ │ │ ├── hoek@2.16.3 </tspan>
<tspan x="10" y="1146">    │ │ │ └── sntp@1.0.9 </tspan>
<tspan x="10" y="1162">    │ │ ├─┬ http-signature@1.1.1 </tspan>
<tspan x="10" y="1178">    │ │ │ ├── assert-plus@0.2.0 </tspan>
<tspan x="10" y="1194">    │ │ │ ├─┬ jsprim@1.4.0 </tspan>
<tspan x="10" y="1210">    │ │ │ │ ├── assert-plus@1.0.0 </tspan>
<tspan x="10" y="1226">    │ │ │ │ ├── extsprintf@1.0.2 </tspan>
<tspan x="10" y="1242">    │ │ │ │ ├── json-schema@0.2.3 </tspan>
<tspan x="10" y="1258">    │ │ │ │ └── verror@1.3.6 </tspan>
<tspan x="10" y="1274">    │ │ │ └─┬ sshpk@1.11.0 </tspan>
<tspan x="10" y="1290">    │ │ │   ├── asn1@0.2.3 </tspan>
<tspan x="10" y="1306">    │ │ │   ├── assert-plus@1.0.0 </tspan>
<tspan x="10" y="1322">    │ │ │   ├── bcrypt-pbkdf@1.0.1 </tspan>
<tspan x="10" y="1338">    │ │ │   ├─┬ dashdash@1.14.1 </tspan>
<tspan x="10" y="1354">    │ │ │   │ └── assert-plus@1.0.0 </tspan>
<tspan x="10" y="1370">    │ │ │   ├── ecc-jsbn@0.1.1 </tspan>
<tspan x="10" y="1386">    │ │ │   ├─┬ getpass@0.1.6 </tspan>
<tspan x="10" y="1402">    │ │ │   │ └── assert-plus@1.0.0 </tspan>
<tspan x="10" y="1418">    │ │ │   ├── jodid25519@1.0.2 </tspan>
<tspan x="10" y="1434">    │ │ │   ├── jsbn@0.1.1 </tspan>
<tspan x="10" y="1450">    │ │ │   └── tweetnacl@0.14.5 </tspan>
<tspan x="10" y="1466">    │ │ ├── is-typedarray@1.0.0 </tspan>
<tspan x="10" y="1482">    │ │ ├── isstream@0.1.2 </tspan>
<tspan x="10" y="1498">    │ │ ├── json-stringify-safe@5.0.1 </tspan>
<tspan x="10" y="1514">    │ │ ├─┬ mime-types@2.1.15 </tspan>
<tspan x="10" y="1530">    │ │ │ └── mime-db@1.27.0 </tspan>
<tspan x="10" y="1546">    │ │ ├── oauth-sign@0.8.2 </tspan>
<tspan x="10" y="1562">    │ │ ├── performance-now@0.2.0 </tspan>
<tspan x="10" y="1578">    │ │ ├── qs@6.4.0 </tspan>
<tspan x="10" y="1594">    │ │ ├── safe-buffer@5.0.1 </tspan>
<tspan x="10" y="1610">    │ │ ├── stringstream@0.0.5 </tspan>
<tspan x="10" y="1626">    │ │ ├─┬ tough-cookie@2.3.2 </tspan>
<tspan x="10" y="1642">    │ │ │ └── punycode@1.4.1 </tspan>
<tspan x="10" y="1658">    │ │ ├── tunnel-agent@0.6.0 </tspan>
<tspan x="10" y="1674">    │ │ └── uuid@3.0.1 </tspan>
<tspan x="10" y="1690">    │ ├─┬ stream-to-buffer@0.1.0 </tspan>
<tspan x="10" y="1706">    │ │ └── stream-to@0.2.2 </tspan>
<tspan x="10" y="1722">    │ └─┬ url-regex@3.2.0 </tspan>
<tspan x="10" y="1738">    │   └── ip-regex@1.0.3 </tspan>
<tspan x="10" y="1754">    ├── jsontoxml@0.0.11 </tspan>
<tspan x="10" y="1770">    ├─┬ merge-defaults@0.2.1 </tspan>
<tspan x="10" y="1786">    │ └── lodash@2.4.2 </tspan>
<tspan x="10" y="1802">    ├─┬ mkdirp@0.5.1 </tspan>
<tspan x="10" y="1818">    │ └── minimist@0.0.8 </tspan>
<tspan x="10" y="1834">    ├─┬ node-rest-client@1.8.0 </tspan>
<tspan x="10" y="1850">    │ ├─┬ debug@2.2.0 </tspan>
<tspan x="10" y="1866">    │ │ └── ms@0.7.1 </tspan>
<tspan x="10" y="1882">    │ └─┬ xml2js@0.4.17 </tspan>
<tspan x="10" y="1898">    │   ├── sax@1.2.2 </tspan>
<tspan x="10" y="1914">    │   └─┬ xmlbuilder@4.2.1 </tspan>
<tspan x="10" y="1930">    │     └── lodash@4.17.4 </tspan>
<tspan x="10" y="1946">    ├── require-directory@2.1.1 </tspan>
<tspan x="10" y="1962">    ├─┬ svg2png@3.0.1 </tspan>
<tspan x="10" y="1978">    │ ├─┬ phantomjs-prebuilt@2.1.14 </tspan>
<tspan x="10" y="1994">    │ │ ├── es6-promise@4.0.5 </tspan>
<tspan x="10" y="2010">    │ │ ├─┬ extract-zip@1.5.0 </tspan>
<tspan x="10" y="2026">    │ │ │ ├─┬ concat-stream@1.5.0 </tspan>
<tspan x="10" y="2042">    │ │ │ │ ├─┬ readable-stream@2.0.6 </tspan>
<tspan x="10" y="2058">    │ │ │ │ │ └── isarray@1.0.0 </tspan>
<tspan x="10" y="2074">    │ │ │ │ └── typedarray@0.0.6 </tspan>
<tspan x="10" y="2090">    │ │ │ ├── debug@0.7.4 </tspan>
<tspan x="10" y="2106">    │ │ │ ├── mkdirp@0.5.0 </tspan>
<tspan x="10" y="2122">    │ │ │ └─┬ yauzl@2.4.1 </tspan>
<tspan x="10" y="2138">    │ │ │   └─┬ fd-slicer@1.0.1 </tspan>
<tspan x="10" y="2154">    │ │ │     └── pend@1.2.0 </tspan>
<tspan x="10" y="2170">    │ │ ├─┬ fs-extra@1.0.0 </tspan>
<tspan x="10" y="2186">    │ │ │ ├── graceful-fs@4.1.11 </tspan>
<tspan x="10" y="2202">    │ │ │ ├── jsonfile@2.4.0 </tspan>
<tspan x="10" y="2218">    │ │ │ └── klaw@1.3.1 </tspan>
<tspan x="10" y="2234">    │ │ ├─┬ hasha@2.2.0 </tspan>
<tspan x="10" y="2250">    │ │ │ ├── is-stream@1.1.0 </tspan>
<tspan x="10" y="2266">    │ │ │ └─┬ pinkie-promise@2.0.1 </tspan>
<tspan x="10" y="2282">    │ │ │   └── pinkie@2.0.4 </tspan>
<tspan x="10" y="2298">    │ │ ├── kew@0.7.0 </tspan>
<tspan x="10" y="2314">    │ │ ├── progress@1.1.8 </tspan>
<tspan x="10" y="2330">    │ │ ├─┬ request@2.79.0 </tspan>
<tspan x="10" y="2346">    │ │ │ ├── caseless@0.11.0 </tspan>
<tspan x="10" y="2362">    │ │ │ ├─┬ har-validator@2.0.6 </tspan>
<tspan x="10" y="2378">    │ │ │ │ ├─┬ chalk@1.1.3 </tspan>
<tspan x="10" y="2394">    │ │ │ │ │ ├── ansi-styles@2.2.1 </tspan>
<tspan x="10" y="2410">    │ │ │ │ │ ├── escape-string-regexp@1.0.5 </tspan>
<tspan x="10" y="2426">    │ │ │ │ │ ├── has-ansi@2.0.0 </tspan>
<tspan x="10" y="2442">    │ │ │ │ │ └── supports-color@2.0.0 </tspan>
<tspan x="10" y="2458">    │ │ │ │ ├─┬ commander@2.9.0 </tspan>
<tspan x="10" y="2474">    │ │ │ │ │ └── graceful-readlink@1.0.1 </tspan>
<tspan x="10" y="2490">    │ │ │ │ └─┬ is-my-json-valid@2.16.0 </tspan>
<tspan x="10" y="2506">    │ │ │ │   ├── generate-function@2.0.0 </tspan>
<tspan x="10" y="2522">    │ │ │ │   ├─┬ generate-object-property@1.2.0 </tspan>
<tspan x="10" y="2538">    │ │ │ │   │ └── is-property@1.0.2 </tspan>
<tspan x="10" y="2554">    │ │ │ │   └── jsonpointer@4.0.1 </tspan>
<tspan x="10" y="2570">    │ │ │ ├── qs@6.3.2 </tspan>
<tspan x="10" y="2586">    │ │ │ └── tunnel-agent@0.4.3 </tspan>
<tspan x="10" y="2602">    │ │ ├─┬ request-progress@2.0.1 </tspan>
<tspan x="10" y="2618">    │ │ │ └── throttleit@1.0.0 </tspan>
<tspan x="10" y="2634">    │ │ └─┬ which@1.2.14 </tspan>
<tspan x="10" y="2650">    │ │   └── isexe@2.0.0 </tspan>
<tspan x="10" y="2666">    │ ├── pn@1.0.0 </tspan>
<tspan x="10" y="2682">    │ └─┬ yargs@3.32.0 </tspan>
<tspan x="10" y="2698">    │   ├── camelcase@2.1.1 </tspan>
<tspan x="10" y="2714">    │   ├─┬ cliui@3.2.0 </tspan>
<tspan x="10" y="2730">    │   │ ├─┬ strip-ansi@3.0.1 </tspan>
<tspan x="10" y="2746">    │   │ │ └── ansi-regex@2.1.1 </tspan>
<tspan x="10" y="2762">    │   │ └── wrap-ansi@2.1.0 </tspan>
<tspan x="10" y="2778">    │   ├── decamelize@1.2.0 </tspan>
<tspan x="10" y="2794">    │   ├─┬ os-locale@1.4.0 </tspan>
<tspan x="10" y="2810">    │   │ └─┬ lcid@1.0.0 </tspan>
<tspan x="10" y="2826">    │   │   └── invert-kv@1.0.0 </tspan>
<tspan x="10" y="2842">    │   ├─┬ string-width@1.0.2 </tspan>
<tspan x="10" y="2858">    │   │ ├── code-point-at@1.1.0 </tspan>
<tspan x="10" y="2874">    │   │ └─┬ is-fullwidth-code-point@1.0.0 </tspan>
<tspan x="10" y="2890">    │   │   └── number-is-nan@1.0.1 </tspan>
<tspan x="10" y="2906">    │   ├── window-size@0.1.4 </tspan>
<tspan x="10" y="2922">    │   └── y18n@3.2.1 </tspan>
<tspan x="10" y="2938">    ├─┬ through2@2.0.3 </tspan>
<tspan x="10" y="2954">    │ ├─┬ readable-stream@2.2.6 </tspan>
<tspan x="10" y="2970">    │ │ ├── buffer-shims@1.0.0 </tspan>
<tspan x="10" y="2986">    │ │ ├── core-util-is@1.0.2 </tspan>
<tspan x="10" y="3002">    │ │ ├── inherits@2.0.3 </tspan>
<tspan x="10" y="3018">    │ │ ├── isarray@1.0.0 </tspan>
<tspan x="10" y="3034">    │ │ ├── process-nextick-args@1.0.7 </tspan>
<tspan x="10" y="3050">    │ │ ├── string_decoder@0.10.31 </tspan>
<tspan x="10" y="3066">    │ │ └── util-deprecate@1.0.2 </tspan>
<tspan x="10" y="3082">    │ └── xtend@4.0.1 </tspan>
<tspan x="10" y="3098">    ├── tinycolor2@1.4.1 </tspan>
<tspan x="10" y="3114">    ├─┬ to-ico@1.1.3 </tspan>
<tspan x="10" y="3130">    │ ├── arrify@1.0.1 </tspan>
<tspan x="10" y="3146">    │ ├── icojs@0.4.1 </tspan>
<tspan x="10" y="3162">    │ ├── image-size@0.5.1 </tspan>
<tspan x="10" y="3178">    │ ├─┬ parse-png@1.1.1 </tspan>
<tspan x="10" y="3194">    │ │ └── pngjs@2.3.1 </tspan>
<tspan x="10" y="3210">    │ └─┬ resize-img@1.1.2 </tspan>
<tspan x="10" y="3226">    │   ├─┬ get-stream@2.3.1 </tspan>
<tspan x="10" y="3242">    │   │ └── object-assign@4.1.1 </tspan>
<tspan x="10" y="3258">    │   └── jpeg-js@0.1.2 </tspan>
<tspan x="10" y="3274">    ├── underscore@1.8.3 </tspan>
<tspan x="10" y="3290">    └─┬ vinyl@1.2.0 </tspan>
<tspan x="10" y="3306">      ├── clone-stats@0.0.1 </tspan>
<tspan x="10" y="3322">      └── replace-ext@0.0.1</tspan>
</text>
</svg>
